# Blender v2.77 (sub 0) OBJ File: 'cube1.blend'
# www.blender.org
mtllib cube1.mtl
o Cube1-object_Cube1-data
v 1.000000 -1.000000 -1.000000
v 1.000000 -1.000000 1.000000
v -1.000000 -1.000000 1.000000
v -1.000000 -1.000000 -1.000000
v 1.000000 1.000000 -0.999999
v 0.999999 1.000000 1.000001
v -1.000000 1.000000 1.000000
v -1.000000 1.000000 -1.000000
v -0.578223 1.619163 0.578223
v -0.578223 1.619163 -0.578223
v 0.578223 1.619163 0.578223
v 0.578223 1.619163 -0.578223
v 0.578223 2.246959 0.578223
v 0.578223 2.246959 -0.578223
v -0.578223 2.246959 -0.578223
v -0.578223 2.246959 0.578223
v -0.827009 2.535443 -0.827009
v -0.827010 2.535443 0.827009
v 0.827009 2.535443 0.827010
v 0.827010 2.535443 -0.827009
v 0.328687 2.797928 0.328687
v 0.328687 2.797928 -0.328687
v -0.328687 2.797928 -0.328687
v -0.328687 2.797928 0.328687
vt 0.0000 0.0000
vt 1.0000 0.0000
vt 1.0000 1.0000
vt 0.0000 1.0000
vt 1.0000 0.0000
vt 1.0000 1.0000
vt 0.0000 1.0000
vt 0.0000 0.0000
vt 1.0000 0.0000
vt 1.0000 1.0000
vt 0.0000 1.0000
vt 0.0000 0.0000
vt 1.0000 0.0000
vt 1.0000 1.0000
vt 0.0000 0.0000
vt 1.0000 0.0000
vt 1.0000 1.0000
vt 0.0000 1.0000
vt 0.0000 0.0000
vt 1.0000 1.0000
vt 0.0000 1.0000
vt 0.0000 0.0000
vt 1.0000 1.0000
vt 0.0000 1.0000
vt 1.0000 0.0000
vt 1.0000 1.0000
vt 0.0000 1.0000
vt 0.0000 0.0000
vt 1.0000 1.0000
vt 0.0000 1.0000
vt 0.0000 0.0000
vt 1.0000 0.0000
vt 1.0000 1.0000
vt 0.0000 1.0000
vt 0.0000 0.0000
vt 1.0000 0.0000
vt 1.0000 1.0000
vt 0.0000 1.0000
vt 0.0000 0.0000
vt 1.0000 0.0000
vt 1.0000 1.0000
vt 0.0000 1.0000
vt 0.0000 0.0000
vt 1.0000 0.0000
vt 1.0000 1.0000
vt 0.0000 1.0000
vt 0.0000 0.0000
vt 1.0000 0.0000
vt 1.0000 1.0000
vt 0.0000 1.0000
vt 0.0000 0.0000
vt 1.0000 0.0000
vt 1.0000 1.0000
vt 0.0000 1.0000
vt 0.0000 0.0000
vt 1.0000 0.0000
vt 1.0000 1.0000
vt 0.0000 1.0000
vt 0.0000 0.0000
vt 1.0000 0.0000
vt 1.0000 1.0000
vt 0.0000 1.0000
vt 0.0000 0.0000
vt 1.0000 0.0000
vt 1.0000 1.0000
vt 0.0000 1.0000
vt 0.0000 0.0000
vt 1.0000 0.0000
vt 1.0000 1.0000
vt 0.0000 1.0000
vt 0.0000 0.0000
vt 1.0000 0.0000
vt 1.0000 1.0000
vt 0.0000 1.0000
vt 0.0000 0.0000
vt 1.0000 0.0000
vt 1.0000 1.0000
vt 0.0000 1.0000
vt 0.0000 0.0000
vt 1.0000 0.0000
vn 0.0000 -1.0000 0.0000
vn 1.0000 0.0000 0.0000
vn -0.0000 -0.0000 1.0000
vn -1.0000 -0.0000 -0.0000
vn 0.0000 0.0000 -1.0000
vn -0.8265 0.5630 -0.0000
vn -0.0000 0.5630 0.8265
vn 0.0000 0.5630 -0.8265
vn 0.8265 0.5630 0.0000
vn -0.7573 -0.6531 -0.0000
vn -0.0000 -0.6531 0.7573
vn 0.0000 -0.6531 -0.7573
vn 0.7573 -0.6531 0.0000
vn 0.4660 0.8848 0.0000
vn 0.0000 0.8848 -0.4660
vn -0.0000 0.8848 0.4660
vn -0.4660 0.8848 -0.0000
vn 0.0000 1.0000 -0.0000
usemtl None
s off
f 1/1/1 2/2/1 3/3/1 4/4/1
f 1/1/2 5/5/2 6/6/2 2/7/2
f 2/8/3 6/9/3 7/10/3 3/11/3
f 3/12/4 7/13/4 8/14/4 4/4/4
f 5/15/5 1/16/5 4/17/5 8/18/5
f 8/19/6 7/13/6 9/20/6 10/21/6
f 7/22/7 6/9/7 11/23/7 9/24/7
f 5/15/8 8/25/8 10/26/8 12/27/8
f 6/28/9 5/5/9 12/29/9 11/30/9
f 11/31/2 12/32/2 14/33/2 13/34/2
f 12/35/5 10/36/5 15/37/5 14/38/5
f 9/39/3 11/40/3 13/41/3 16/42/3
f 10/43/4 9/44/4 16/45/4 15/46/4
f 15/47/10 16/48/10 18/49/10 17/50/10
f 16/51/11 13/52/11 19/53/11 18/54/11
f 14/55/12 15/56/12 17/57/12 20/58/12
f 13/59/13 14/60/13 20/61/13 19/62/13
f 19/63/14 20/64/14 22/65/14 21/66/14
f 20/67/15 17/68/15 23/69/15 22/70/15
f 18/71/16 19/72/16 21/73/16 24/74/16
f 17/75/17 18/76/17 24/77/17 23/78/17
f 22/79/18 23/80/18 24/77/18 21/66/18
